<svg id="Layer_1" data-name="Layer 1" xmlns="http://www.w3.org/2000/svg" viewBox="0 0 500 500"><defs><style>.cls-1,.cls-2,.cls-3,.cls-4{fill:#c92c17;stroke:#fff;}.cls-1,.cls-2,.cls-3,.cls-4,.cls-5{stroke-miterlimit:10;}.cls-1{stroke-width:19px;}.cls-2{stroke-width:2px;}.cls-3{stroke-width:11.34px;}.cls-4{stroke-width:8.5px;}.cls-5{fill:#fff;stroke:#c92c17;stroke-width:2.76px;}</style></defs><title>Artboard 1 copy 83uudet</title><rect class="cls-1" x="141.91" y="140.36" width="259.46" height="180.73"/><polygon class="cls-2" points="141.91 321.09 31.17 321.09 31.17 254.71 48.97 168.55 141.86 168.55 141.91 321.09"/><circle class="cls-3" cx="339.75" cy="326.09" r="33.54"/><circle class="cls-3" cx="96.13" cy="326.09" r="33.54"/><path class="cls-4" d="M398.05,175.18c40.19,0,72.78,17.87,72.78,39.91s-32.59,45.52-72.78,45.52l-111.89-.43v29.17L220.75,246.9l65.41-39.32v31.14l111.89.57c24.37,0,44.12-10.84,44.12-24.2s-19.75-24.19-44.12-24.19"/><polygon class="cls-5" points="59.59 183.64 48.03 239.78 129.67 239.77 129.67 183.64 59.59 183.64"/></svg>