<svg id="Layer_1" data-name="Layer 1" xmlns="http://www.w3.org/2000/svg" viewBox="0 0 500 500"><defs><style>.cls-1,.cls-2,.cls-3{fill:#c92c17;}.cls-1,.cls-2{stroke:#fff;stroke-miterlimit:10;}.cls-1{stroke-width:12.21px;}.cls-2{stroke-width:9.16px;}.cls-4{fill:#fff;}</style></defs><title>Artboard 1 copy 81uudet</title><rect class="cls-1" x="82.93" y="131.35" width="254.63" height="245.76"/><polygon class="cls-2" points="337.56 377.08 426.94 324.73 426.94 102.74 337.56 131.15 337.56 377.08"/><polygon class="cls-3" points="217.75 104.26 417.1 104.26 337.32 129.63 97.51 129.81 217.75 104.26"/><path class="cls-4" d="M407.26,105.79,337.08,128.1l-225,.17,105.81-22.48H407.26m19.68-3.05H217.59L82.93,131.35l254.63-.2,89.38-28.41Z"/><polygon class="cls-4" points="395.97 257.99 390.76 252.97 384.17 262.61 379.88 255.09 375.42 262.61 375.42 119.44 395.97 112.48 395.97 257.99"/><polyline class="cls-4" points="392.81 111.77 187.67 111.77 159 118.07 373.72 118.07 392.31 112.48"/><path class="cls-4" d="M176.45,283.46l49.13,1.88s49,35.77,69.25,36.06l-5.2,10.83s-13.28,13.55-30.38,1.35l-19.91-7.49c-13.54-.64-6.21,10.46-3.52,18.26a57.63,57.63,0,0,0,12.59,20c5.9,6.32,12.57,7.28,21,9.75a7.06,7.06,0,0,1,3.39,1.71c1.67,1.83,1,4.81-.37,6.9-3.2,5-9.21,7.6-15.1,8.12-4.46.4-9.4-1.75-13.59-1.21-3.61.46-5,2.26-8.41,3.66-7.35,3-16.47,1.91-22.08-4.05-1.81,4.28-7.07,6-11.72,5.91s-9.29-1.3-13.9-.67c-4.23.57-8.19,2.71-12.46,2.83-13.18.39-22-17.08-27.74-26.65-8.49-14.06-15.75-29.65-18-46.06L122,315.54,169.19,273Z"/><path class="cls-3" d="M176.45,286.63c15.7.6,31.43,1.6,47.13,1.8a13.12,13.12,0,0,0,2,.08c-1.53.22-1.87-.85-.37.43a87.29,87.29,0,0,0,7.76,5.4c9.4,6.39,19,12.5,29,18s21.35,11.86,32.9,12.24l-2.73-4.75c-1.47,3.06-3.61,8.72-5,10.48.21-.27-1.86,1.43-2.5,1.85a20.47,20.47,0,0,1-9.91,3.35c-6.78.36-11.76-3.88-17.75-6.13-5.07-1.91-10.1-4-15.23-5.73-4-1.39-9.79-.94-12.34,3-2.93,4.52.17,10.61,1.94,14.94,3.38,8.21,6.75,15.67,12.57,22.53,6.14,7.24,13.4,9.94,22.31,12.43,10.06,2.82-2.3,9.92-6.83,10.85-5.33,1.1-10.38-1.39-15.69-.89-4.44.43-7.7,3.55-11.91,4.66A16.89,16.89,0,0,1,215.46,387a3.2,3.2,0,0,0-5,.64c-3.46,6.64-12.67,3.82-18.56,3.56-6.58-.3-13,4-19.44,2.75-10.18-1.94-16.25-14.55-21-22.58-7.28-12.32-14-24.9-17.39-38.9-1.06-4.34-1-8.34-3.88-11.82l-6-7.37v4.47l47.2-42.51-5-.64,7.26,10.44c2.31,3.32,7.8.16,5.47-3.19l-7.27-10.44a3.22,3.22,0,0,0-5-.64L119.76,313.3a3.23,3.23,0,0,0,0,4.47c2.07,2.54,5.17,5.28,6.65,8.17,1,1.94.94,5.51,1.6,8.23a102.67,102.67,0,0,0,3.69,11.88c4.94,13.16,12,25.77,19.8,37.48,5.86,8.82,14.33,18.48,26.07,16.72,4-.6,7.7-2.48,11.76-2.74s8.1.85,12.17.82c5.8,0,11.64-2.09,14.45-7.47l-5,.64a23.48,23.48,0,0,0,23.84,5.34c4.11-1.36,7.22-4.37,11.77-4,5.33.38,9.83,1.81,15.21.51,6.74-1.64,16.59-7.87,14.95-16.16-.82-4.15-4.47-5.45-8.09-6.5-4.79-1.39-9.84-2.39-14.08-5.15-9-5.84-13.45-16.61-17.33-26.09-.81-2-3.36-6.31-2.68-8.53s3.34-1.72,5.23-1.24c5.46,1.38,10.88,4.09,16.16,6.08,2.3.87,4,2.24,6.25,3.32a26.14,26.14,0,0,0,13.11,2.74c5.49-.36,12.54-2.76,16.3-7.08,2.73-3.14,4.14-7.95,5.93-11.69a3.2,3.2,0,0,0-2.73-4.76c-10.18-.34-20.5-6.35-29.2-11.11-10-5.48-19.7-11.61-29.15-18-3.39-2.3-7.35-6.45-11.54-6.95-8-1-16.37-.63-24.42-.94l-24.07-.92C172.38,280.14,172.39,286.47,176.45,286.63Z"/><path class="cls-3" d="M173.36,282.7,74.88,141.2H72.06L73,258.41l53.29,65.44S163.05,325.11,173.36,282.7Z"/><path class="cls-4" d="M176.09,281.1l-35.16-50.51-53.72-77.2-7.76-11.15c-2.12-3-3.19-4.2-7.39-4.2a3.21,3.21,0,0,0-3.17,3.16l.91,113a26.51,26.51,0,0,0,0,4.18c.35,2,2,3.53,3.25,5.1l19,23.34,22.79,28,7.37,9.05c1.29,1.57,2,2.81,4.14,3.14,7,1.07,16.25-2.59,22.28-5.66,14.86-7.56,23.73-22,27.74-37.82,1-4-5.1-5.63-6.11-1.68-3.59,14.17-11.18,26.95-24.45,33.85A46.62,46.62,0,0,1,133.38,320c-1.54.3-5.39-.08-6.64.7-1,.63,1.61,1.46,1.59.68,0-.46-1.32-1.61-1.6-2l-7.13-8.75L97.8,283.89l-19-23.36c-.34-.41-3-4.39-3.52-4.32,2.8-.32.4,3.53.89,1.41a12.18,12.18,0,0,0,0-2.63l-.47-59.18-.44-54.61-3.16,3.16h2.82l-2.73-1.56,33.25,47.77,53,76.18,12.21,17.55C172.93,287.61,178.42,284.46,176.09,281.1Z"/></svg>