<svg id="Layer_1" data-name="Layer 1" xmlns="http://www.w3.org/2000/svg" viewBox="0 0 500 500"><defs><style>.cls-1{fill:#c92c17;stroke:#fff;stroke-miterlimit:10;stroke-width:11.34px;}</style></defs><title>Artboard 1 copy 85uudet</title><polygon class="cls-1" points="76.53 123.56 94.95 160.89 136.15 166.88 106.34 195.94 113.38 236.97 76.53 217.6 39.67 236.97 46.71 195.94 16.9 166.88 58.1 160.89 76.53 123.56"/><polygon class="cls-1" points="423.48 123.56 441.9 160.89 483.1 166.88 453.29 195.94 460.33 236.97 423.48 217.6 386.62 236.97 393.66 195.94 363.85 166.88 405.05 160.89 423.48 123.56"/><polygon class="cls-1" points="146.48 151.64 168.02 195.28 216.18 202.28 181.33 236.25 189.56 284.21 146.48 261.57 103.4 284.21 111.63 236.25 76.78 202.28 124.94 195.28 146.48 151.64"/><polygon class="cls-1" points="353.52 151.64 375.06 195.28 423.22 202.28 388.37 236.25 396.6 284.21 353.52 261.57 310.44 284.21 318.67 236.25 283.82 202.28 331.98 195.28 353.52 151.64"/><polygon class="cls-1" points="250 170.18 283.51 238.08 358.44 248.96 304.22 301.82 317.02 376.44 250 341.21 182.98 376.44 195.78 301.82 141.56 248.96 216.49 238.08 250 170.18"/></svg>