<svg id="Layer_1" data-name="Layer 1" xmlns="http://www.w3.org/2000/svg" viewBox="0 0 500 500"><defs><style>.cls-1{fill:#c92c17;stroke:#fff;stroke-width:10px;}.cls-1,.cls-2{stroke-miterlimit:10;}.cls-2{fill:#fff;stroke:#c92c17;stroke-width:2.83px;}</style></defs><title>Artboard 1 copy 86uudet</title><circle class="cls-1" cx="250" cy="250" r="167.9" transform="translate(-103.55 250) rotate(-45)"/><circle class="cls-1" cx="250" cy="250" r="141.66"/><path class="cls-2" d="M120.87,212.63l49.5-10.53L174,219.2q8.42-13,18.34-19.81t25.33-10.11q16.56-3.53,27.28-.61a41,41,0,0,1,18.93,11.42q10-14.11,19.45-20.44t24.49-9.53q22.25-4.74,37.11,3.81t19.93,32.36l15.64,73.57-53.14,11.3-14.19-66.73q-1.68-7.94-6.15-11a17.27,17.27,0,0,0-14.52-3.25q-9.35,2-13.86,8.94t-1.78,19.63l12.85,60.44-53.17,11.3-13.71-64.52c-1.1-5.15-2.18-8.57-3.27-10.26a14.87,14.87,0,0,0-7.4-5.86,18,18,0,0,0-10.37-.62,20.9,20.9,0,0,0-13.8,9q-4.62,7.09-1.8,20.44l12.71,59.78-53.14,11.3Z"/></svg>